<svg xmlns="http://www.w3.org/2000/svg" viewBox="0 0 630 154.65"><defs><style>.cls-1{fill:#284a5e;}.cls-2{fill:#ddc086;}</style></defs><g id="Layer_2" data-name="Layer 2"><g id="Layer_1-2" data-name="Layer 1"><path class="cls-1" d="M195.05,113.54V54.81l-6.48-5.66v64.39Zm0-72.55h-6.48v8.16h6.48Z"/><path class="cls-1" d="M593.86,43.51V41.13h14.25v2.38Zm5.73,14.77V41.13h2.82V58.28Z"/><path class="cls-1" d="M611.69,58.28V41.13h2.72l.11,17.15Zm10.16,0h-2l-4.19-10.23-2.35-6.92h2.2L620.34,53l.76,2.42h-.38L621.5,53l4.79-11.88h2.07L626,48.07Zm5.33,0,.1-17.15H630V58.28Z"/><path class="cls-1" d="M221,100q0,10.8,10.27,10.81h23.78v2.7H228.57c-4.48,0-7.93-1.24-10.38-3.73s-3.68-6-3.68-10.43V41.11H221Z"/><path class="cls-1" d="M309.1,113.54H281c-4.48,0-7.93-1.24-10.38-3.73s-3.68-6-3.68-10.43V41.11H308V46q-3.57-.64-7-1c-2.3-.26-4.79-.47-7.45-.65s-5.63-.31-8.87-.38-7-.11-11.24-.11v30h28.1v2.7h-28.1V100q0,10.8,10.27,10.81h25.4Z"/><path class="cls-1" d="M328.56,113.54h-3.24V41.11h1.08L374,100.24V41.11h3.25v72.43h-.54L328.56,53.86Z"/><path class="cls-1" d="M436.66,45.65,433.2,50a25.17,25.17,0,0,0-8.43-4.75,30.85,30.85,0,0,0-10.27-1.73q-6.81,0-10.81,3a9.76,9.76,0,0,0-4,8.22,12.29,12.29,0,0,0,3,8.59A26,26,0,0,0,410.12,69a100.28,100.28,0,0,0,9.73,4.37,55.77,55.77,0,0,1,9.73,4.92A26.06,26.06,0,0,1,437,85.38q3,4.28,3,11.08a17.1,17.1,0,0,1-1.79,8.05,16.54,16.54,0,0,1-4.86,5.68,21.27,21.27,0,0,1-7,3.35,31.59,31.59,0,0,1-8.38,1.08A38.25,38.25,0,0,1,404.07,112a31.15,31.15,0,0,1-11.73-7.84l4.11-4.1a27.1,27.1,0,0,0,4.86,4.54,35.81,35.81,0,0,0,6.06,3.56,34.1,34.1,0,0,0,6.7,2.33,29.38,29.38,0,0,0,6.7.81q6.92,0,10.87-3.3a11.25,11.25,0,0,0,3.94-9.13,12.9,12.9,0,0,0-3-8.81,26.56,26.56,0,0,0-7.46-5.84,86.89,86.89,0,0,0-9.73-4.49,56.13,56.13,0,0,1-9.73-4.92,26.77,26.77,0,0,1-7.46-7q-3-4.17-3-10.76a14.57,14.57,0,0,1,1.62-6.87,16.62,16.62,0,0,1,4.54-5.35,21.68,21.68,0,0,1,6.92-3.51A29.74,29.74,0,0,1,417.2,40a38,38,0,0,1,10.71,1.51A28.07,28.07,0,0,1,436.66,45.65Z"/><path class="cls-1" d="M462.39,113.54h-6.48V41.11h6.48Z"/><path class="cls-1" d="M488.34,43.81v31h28.1v2.7h-28.1v36h-6.49V41.11h41.08V46q-3.57-.64-7-1c-2.3-.26-4.79-.47-7.46-.65s-5.62-.31-8.86-.38S492.59,43.81,488.34,43.81Z"/><path class="cls-1" d="M552.55,83.05,529.42,41.11h5.51a2.4,2.4,0,0,1,2.38,1.4l20,36.65,20.1-36.65a2.53,2.53,0,0,1,2.38-1.4h2.06L559,82.19v31.35h-6.49Z"/><path class="cls-2" d="M85.41,53.63a7.41,7.41,0,0,0,.34-4.85A7.44,7.44,0,0,1,86,44.21L100.15,6.68A2.7,2.7,0,1,0,95,5.38L93.19,18.85a7.28,7.28,0,0,1-1,2.81l-5.34,9.09A7.62,7.62,0,0,0,86,33.06L80.21,62l1.47.43Z"/><path class="cls-2" d="M98.1,37.51,84.39,63.63l1.28.83,6.06-7.38a7.42,7.42,0,0,0,1.69-4.56,7.5,7.5,0,0,1,1.5-4.32l24.18-32a2.71,2.71,0,0,0-.7-3.9h0a2.7,2.7,0,0,0-3.92,1.18L109,25.9a7.25,7.25,0,0,1-1.71,2.42L99.6,35.55A7.36,7.36,0,0,0,98.1,37.51Z"/><path class="cls-2" d="M108.45,45.19,87.93,66.39l1,1.15,7.89-5.37a7.43,7.43,0,0,0,2.9-3.89h0a7.57,7.57,0,0,1,2.66-3.73l32.22-23.9a2.7,2.7,0,1,0-3.67-3.91l-8.76,10.38A7.57,7.57,0,0,1,119.84,39l-9.41,4.77A7.31,7.31,0,0,0,108.45,45.19Z"/><path class="cls-2" d="M128.9,52.71l-10.37,1.92a7.34,7.34,0,0,0-2.32.84L90.55,70l.63,1.39,9.08-2.93a7.43,7.43,0,0,0,3.89-2.92,7.48,7.48,0,0,1,3.6-2.82L145.4,48.89A2.7,2.7,0,1,0,143,44.1l-11.33,7.5A7.66,7.66,0,0,1,128.9,52.71Z"/><path class="cls-2" d="M133.71,68.45l-10.49-1.08a7.29,7.29,0,0,0-2.46.16L92,74.26l.21,1.51,9.54-.24a7.53,7.53,0,0,0,4.56-1.71h0a7.45,7.45,0,0,1,4.24-1.7l40-2.69a2.7,2.7,0,1,0-1-5.27l-13,4A7.53,7.53,0,0,1,133.71,68.45Z"/><path class="cls-2" d="M150.39,85.28l-13.58.18a7.6,7.6,0,0,1-2.91-.55l-9.76-4a7.67,7.67,0,0,0-2.41-.54L92.27,78.74l-.22,1.52,9.23,2.44a7.42,7.42,0,0,0,4.85-.35,7.39,7.39,0,0,1,4.55-.43l39.17,8.69a2.7,2.7,0,1,0,.54-5.33Z"/><path class="cls-2" d="M145.16,105.76l-13.08-3.66a7.52,7.52,0,0,1-2.64-1.35l-8.24-6.58A7.51,7.51,0,0,0,119,93L91.23,83.11,90.6,84.5l8.16,5a7.46,7.46,0,0,0,4.75,1,7.47,7.47,0,0,1,4.49.88l35.13,19.37a2.7,2.7,0,1,0,2-5Z"/><path class="cls-2" d="M134.37,123.93l-11.52-7.19a7.47,7.47,0,0,1-2.15-2l-6.06-8.64a7.41,7.41,0,0,0-1.73-1.76L89,87l-1,1.15,6.43,7a7.44,7.44,0,0,0,4.28,2.32,7.46,7.46,0,0,1,4.06,2.1L131,128.12A2.7,2.7,0,0,0,135,128h0A2.7,2.7,0,0,0,134.37,123.93Z"/><path class="cls-2" d="M109.87,128.18a7.58,7.58,0,0,1-1.49-2.56l-3.38-10a7.45,7.45,0,0,0-1.16-2.17L85.78,90.12,84.49,91l4.19,8.57A7.4,7.4,0,0,0,92.13,103h0a7.47,7.47,0,0,1,3.3,3.16l19.08,35.29a2.7,2.7,0,1,0,4.39-3.07Z"/><path class="cls-2" d="M94.2,135.5a7.36,7.36,0,0,1-.71-2.88l-.43-10.54a7.17,7.17,0,0,0-.51-2.41L81.8,92.2l-1.47.43,1.61,9.4a7.41,7.41,0,0,0,2.34,4.27h0a7.5,7.5,0,0,1,2.28,4l8.36,39.24a2.7,2.7,0,1,0,5.08-1.72Z"/><path class="cls-2" d="M77.4,93.07H75.87l-1.11,9.48a7.42,7.42,0,0,0,1,4.75h0a7.44,7.44,0,0,1,1.07,4.44l-3,40a2.7,2.7,0,1,0,5.36-.21l-2.11-13.42a7.57,7.57,0,0,1,.13-3l2.56-10.23a7.57,7.57,0,0,0,.2-2.46Z"/><path class="cls-2" d="M67.72,101a7.42,7.42,0,0,0-.33,4.85,7.51,7.51,0,0,1-.23,4.57L53,148a2.7,2.7,0,1,0,5.2,1.3l1.75-13.46a7.57,7.57,0,0,1,1-2.81l5.34-9.1a7.31,7.31,0,0,0,.88-2.3l5.81-28.93-1.47-.43Z"/><path class="cls-2" d="M55,117.14,68.75,91l-1.28-.83-6.06,7.37a7.47,7.47,0,0,0-1.69,4.56,7.5,7.5,0,0,1-1.5,4.32L34,138.46a2.68,2.68,0,0,0,.7,3.89h0a2.69,2.69,0,0,0,3.92-1.18l5.48-12.43a7.64,7.64,0,0,1,1.72-2.42l7.68-7.22A7.48,7.48,0,0,0,55,117.14Z"/><path class="cls-2" d="M44.69,109.46l20.52-21.2-1-1.16-7.89,5.37a7.47,7.47,0,0,0-2.91,3.9h0a7.42,7.42,0,0,1-2.65,3.72L18.54,124a2.7,2.7,0,1,0,3.67,3.91L31,117.52a7.48,7.48,0,0,1,2.33-1.84l9.4-4.76A7.74,7.74,0,0,0,44.69,109.46Z"/><path class="cls-2" d="M24.24,101.94,34.61,100a7.36,7.36,0,0,0,2.32-.85L62.59,84.62,62,83.23l-9.09,2.92A7.44,7.44,0,0,0,49,89.07a7.49,7.49,0,0,1-3.6,2.83L7.74,105.76a2.7,2.7,0,1,0,2.42,4.78l11.33-7.49A7.42,7.42,0,0,1,24.24,101.94Z"/><path class="cls-2" d="M19.43,86.2l10.49,1.08a7.55,7.55,0,0,0,2.46-.16L61.1,80.38l-.22-1.51-9.53.25a7.41,7.41,0,0,0-4.56,1.71,7.44,7.44,0,0,1-4.25,1.69l-40,2.7a2.7,2.7,0,1,0,1,5.27l13-4A7.59,7.59,0,0,1,19.43,86.2Z"/><path class="cls-2" d="M2.74,69.36l13.59-.17a7.31,7.31,0,0,1,2.91.55l9.76,4a7.4,7.4,0,0,0,2.41.54L60.87,75.9l.21-1.51-9.22-2.45A7.42,7.42,0,0,0,47,72.3a7.47,7.47,0,0,1-4.55.42L3.29,64a2.7,2.7,0,1,0-.55,5.33Z"/><path class="cls-2" d="M8,48.89l13.08,3.65A7.38,7.38,0,0,1,23.7,53.9l8.24,6.58a7.48,7.48,0,0,0,2.16,1.19l27.8,9.86.64-1.38-8.16-5a7.43,7.43,0,0,0-4.76-1,7.42,7.42,0,0,1-4.48-.87L10,43.93a2.7,2.7,0,1,0-2,5Z"/><path class="cls-2" d="M18.77,30.71l11.52,7.2a7.46,7.46,0,0,1,2.15,2l6.06,8.63a7.23,7.23,0,0,0,1.73,1.76l23.9,17.3,1-1.16-6.44-7a7.49,7.49,0,0,0-4.27-2.33h0A7.39,7.39,0,0,1,50.36,55L22.11,26.53a2.69,2.69,0,1,0-3.34,4.18Z"/><path class="cls-2" d="M43.27,26.47A7.4,7.4,0,0,1,44.76,29l3.37,10A7.53,7.53,0,0,0,49.3,41.2L67.36,64.52l1.29-.82-4.19-8.57A7.52,7.52,0,0,0,61,51.69a7.41,7.41,0,0,1-3.3-3.16L38.63,13.24a2.7,2.7,0,1,0-4.39,3.08Z"/><path class="cls-2" d="M58.94,19.14A7.45,7.45,0,0,1,59.65,22l.43,10.54a7.41,7.41,0,0,0,.5,2.42L71.34,62.45,72.8,62l-1.6-9.41a7.42,7.42,0,0,0-2.34-4.26h0a7.47,7.47,0,0,1-2.28-4L58.22,5.15a2.7,2.7,0,1,0-5.08,1.71Z"/><path class="cls-2" d="M77.27,61.58l1.11-9.48a7.46,7.46,0,0,0-1-4.75,7.4,7.4,0,0,1-1.07-4.45l3-40a2.7,2.7,0,1,0-5.35.22l2.11,13.41a7.43,7.43,0,0,1-.14,3L73.35,29.73a7.52,7.52,0,0,0-.19,2.46l2.58,29.39Z"/></g></g></svg>